# xmcd
#
# Track frame offsets: 
#        150
#        10212
#        22115
#        36495
#        48967
#        60705
#        72255
#        84845
#        97017
#        107480
#        127942
#        141687
#        157387
#        169912
#        180997
#        194272
#        206037
#        217747
#        229875
#        242572
#
# Disc length: 3394 seconds
#
# Revision: 6
# Processed by: cddbd v1.5.2PL0 Copyright (c) Steve Scherf et al.
# Submitted via: ExactAudioCopy v1.0b1
#
DISCID=1d0d4014
DTITLE=Various Artist - Living The Blues Vol. 4 1957-1959 Blues Classics
DYEAR=1996
DGENRE=Blues
TTITLE0=Lazy Lester - I Hear You Knockin'
TTITLE1=Otis Rush - All Your Love (I Miss Loving)
TTITLE2=Muddy Waters - Rock Me
TTITLE3=Little Walter - Key To The Highway
TTITLE4=B.B. King - Please Accept My Love
TTITLE5=Lightnin' Slim - Rooster Blues
TTITLE6=Jimmy McCracklin - The Walk
TTITLE7=Johnny Guitar Watson - Gangster Of Love
TTITLE8=Bobby Bland - I'll Take Care Of You
TTITLE9=Big Maybelle - Blues Early Early
TTITLE10=Tarheel Slim - Number 9 Train
TTITLE11=Ray Charles - (Night Time Is) The Right Time
TTITLE12=Jimmy Reed - Honest I Do
TTITLE13=Wilbert Harrison - Kansas City
TTITLE14=Magic Sam - All Your Love
TTITLE15=Ann Cole - Got My Mojo Workin'
TTITLE16=John Lee Hooker - I Love You Honey
TTITLE17=Little Junior Parker - Barefoot Rock
TTITLE18=Slim Harpo - I've Got Love If You Want It
TTITLE19=Larry Davis - Texas Flood
EXTD=YEAR: 1996
EXTT0=
EXTT1=
EXTT2=
EXTT3=
EXTT4=
EXTT5=
EXTT6=
EXTT7=
EXTT8=
EXTT9=
EXTT10=
EXTT11=
EXTT12=
EXTT13=
EXTT14=
EXTT15=
EXTT16=
EXTT17=
EXTT18=
EXTT19=
PLAYORDER=
